<svg width="30" height="30" fill="none" xmlns="http://www.w3.org/2000/svg"><circle cx="15" cy="15" r="15" fill="#263790" fill-opacity=".2"/><path d="M15.294 7.027c-4.54 0-8.235 3.627-8.235 8.086 0 4.457 3.694 8.085 8.235 8.085 4.541 0 8.235-3.628 8.235-8.085 0-4.459-3.694-8.086-8.235-8.086zm4.286 5.376l-5.321 6.22a.633.633 0 0 1-.475.221h-.011a.643.643 0 0 1-.47-.206l-2.281-2.488a.62.62 0 0 1-.172-.452.614.614 0 0 1 .209-.437.636.636 0 0 1 .464-.158.643.643 0 0 1 .44.216l1.793 1.955 4.854-5.671a.638.638 0 0 1 .887-.07.618.618 0 0 1 .083.87z" fill="#263790"/></svg>