<svg width="115" height="115" viewBox="0 0 115 115" fill="none" xmlns="http://www.w3.org/2000/svg">
<path d="M52.3109 105.678L52.4161 104.001L57.0504 104.292L56.9452 105.969L52.3109 105.678Z" fill="white"/>
<path d="M32.5092 101.076L34.4888 101.983C34.4076 102.256 34.3772 102.517 34.3976 102.767C34.4165 103.02 34.481 103.257 34.5908 103.479C34.7007 103.701 34.8529 103.902 35.0473 104.082C35.2388 104.261 35.4671 104.411 35.7323 104.533C36.2114 104.752 36.6833 104.824 37.1479 104.749C37.6111 104.677 38.0443 104.46 38.4472 104.098C38.8488 103.738 39.1967 103.238 39.4908 102.596C39.7932 101.936 39.9493 101.337 39.9592 100.798C39.966 100.258 39.8442 99.7922 39.5935 99.4003C39.3429 99.0084 38.9841 98.7055 38.517 98.4915C38.2549 98.3714 37.9965 98.2949 37.7417 98.2621C37.484 98.2278 37.2373 98.237 37.0018 98.2895C36.7649 98.345 36.545 98.4429 36.3422 98.5833C36.1363 98.7223 35.9541 98.905 35.7957 99.1313L33.8202 98.2153C34.0661 97.8139 34.382 97.4628 34.7677 97.162C35.1491 96.8628 35.5827 96.6367 36.0684 96.4837C36.5497 96.3324 37.0683 96.2747 37.6243 96.3106C38.1758 96.3482 38.7483 96.503 39.3419 96.775C40.1675 97.1533 40.8202 97.6783 41.2998 98.3501C41.7764 99.0206 42.0408 99.7961 42.093 100.677C42.1421 101.556 41.9361 102.499 41.475 103.505C41.0124 104.515 40.4291 105.286 39.7249 105.82C39.0208 106.355 38.2584 106.658 37.4377 106.73C36.6156 106.806 35.7978 106.657 34.9842 106.284C34.4479 106.039 33.9852 105.735 33.5963 105.375C33.2043 105.013 32.8968 104.606 32.6738 104.154C32.4494 103.705 32.321 103.221 32.2886 102.703C32.2531 102.184 32.3267 101.642 32.5092 101.076Z" fill="white"/>
<path d="M21.9675 90.8637C22.6999 90.0292 23.4811 89.458 24.3113 89.1502C25.1389 88.8402 25.9599 88.769 26.7741 88.9366C27.5836 89.1045 28.3259 89.4847 29.0011 90.077C29.6813 90.6738 30.1561 91.3638 30.4257 92.147C30.6952 92.9303 30.7301 93.7523 30.5302 94.6132C30.3304 95.474 29.8654 96.3205 29.1352 97.1526C28.4029 97.9871 27.6229 98.5594 26.7952 98.8694C25.9676 99.1794 25.149 99.2504 24.3394 99.0825C23.5277 98.9171 22.7818 98.536 22.1016 97.9392C21.4265 97.3468 20.9541 96.659 20.6846 95.8758C20.4103 95.0928 20.3731 94.2709 20.573 93.4101C20.7703 92.547 21.2351 91.6983 21.9675 90.8637ZM23.6081 92.3031C23.1337 92.8437 22.8146 93.3706 22.6508 93.8839C22.4845 94.395 22.463 94.8743 22.5861 95.3219C22.7093 95.7695 22.9664 96.1648 23.3576 96.508C23.7487 96.8512 24.1742 97.0548 24.634 97.1187C25.0939 97.1826 25.5676 97.1001 26.0553 96.8709C26.5405 96.6397 27.0203 96.2537 27.4947 95.7131C27.969 95.1725 28.2894 94.6467 28.4557 94.1356C28.6195 93.6224 28.6398 93.1419 28.5166 92.6944C28.3935 92.2468 28.1363 91.8514 27.7452 91.5082C27.354 91.165 26.9285 90.9615 26.4687 90.8976C26.0089 90.8336 25.5364 90.9173 25.0512 91.1486C24.5635 91.3777 24.0825 91.7625 23.6081 92.3031Z" fill="white"/>
<path d="M9.90098 82.5206L18.5278 77.1125L19.5155 78.6878L16.439 85.8446L16.4787 85.9078L21.9083 82.5039L23.0519 84.3278L14.4251 89.7359L13.4215 88.1353L16.5123 81.0106L16.4647 80.9348L11.0393 84.336L9.90098 82.5206Z" fill="white"/>
<path d="M8.96113 76.2546L7.25772 76.7532L4.90854 68.7277L6.61195 68.2292L7.48765 71.2208L15.5562 68.8595L16.1539 70.9016L8.08542 73.263L8.96113 76.2546Z" fill="white"/>
<path d="M14.076 60.6144L14.0978 62.9212L3.88315 59.5027L3.8569 56.7287L14.005 53.1226L14.0269 55.4293L6.19625 58.0539L6.197 58.1335L14.076 60.6144ZM10.0754 60.7965L10.0238 55.3479L11.7041 55.332L11.7557 60.7806L10.0754 60.7965Z" fill="white"/>
<path d="M10.5547 39.5167L9.96125 41.6118C9.67934 41.5733 9.41645 41.5833 9.17255 41.6416C8.92547 41.6991 8.70079 41.7991 8.49852 41.9416C8.29624 42.0841 8.12092 42.2653 7.97255 42.4851C7.82508 42.7017 7.7116 42.9503 7.63211 43.2309C7.48848 43.7379 7.48934 44.2153 7.63468 44.6629C7.77683 45.1096 8.05773 45.5044 8.47736 45.8471C8.8938 46.189 9.44165 46.4561 10.1209 46.6485C10.8193 46.8462 11.4354 46.9088 11.9693 46.8361C12.5041 46.7602 12.9459 46.5684 13.2949 46.2607C13.6438 45.9531 13.8883 45.5521 14.0283 45.0578C14.1069 44.7804 14.1429 44.5133 14.1364 44.2565C14.1308 43.9966 14.0841 43.7543 13.9962 43.5296C13.905 43.304 13.7746 43.1017 13.6048 42.9227C13.436 42.7405 13.2276 42.5885 12.9796 42.4666L13.5826 40.3742C14.0169 40.5558 14.4122 40.8141 14.7686 41.1493C15.1226 41.4803 15.4124 41.8742 15.6379 42.3307C15.8611 42.7832 15.9974 43.2868 16.047 43.8417C16.0942 44.3924 16.0288 44.9819 15.8509 45.6102C15.6034 46.4839 15.1844 47.2092 14.5938 47.786C14.0042 48.3597 13.2782 48.7397 12.4159 48.9261C11.5545 49.1092 10.5912 49.05 9.52608 48.7484C8.45778 48.4458 7.60583 47.9875 6.97023 47.3735C6.33464 46.7594 5.91827 46.0525 5.72114 45.2526C5.52082 44.4518 5.5426 43.6209 5.78649 42.7599C5.94728 42.1922 6.17604 41.6886 6.47279 41.2491C6.77044 40.8063 7.12564 40.4402 7.53837 40.1506C7.94791 39.8601 8.40614 39.6592 8.91306 39.5478C9.42089 39.4333 9.9681 39.4229 10.5547 39.5167Z" fill="white"/>
<path d="M11.0162 34.0976L9.50426 33.168L13.8845 26.0448L15.3964 26.9743L13.7636 29.6297L20.9253 34.0327L19.8108 35.8453L12.649 31.4422L11.0162 34.0976Z" fill="white"/>
<path d="M22.6919 16.3259L24.8884 14.8348L31.0511 18.9197L31.1498 18.8526L29.627 11.6181L31.8236 10.127L37.5429 18.5507L35.8153 19.7235L32.0927 14.2407L32.0228 14.2882L33.5374 21.2097L32.3609 22.0083L26.4722 18.026L26.4023 18.0735L30.1388 23.5768L28.4112 24.7496L22.6919 16.3259Z" fill="white"/>
<path d="M41.0066 17.1735L37.9405 7.46435L44.4829 5.39867L45.0174 7.09114L40.5277 8.50867L41.2583 10.8222L45.4114 9.51094L45.9458 11.2034L41.7928 12.5147L42.5249 14.8329L47.0335 13.4094L47.568 15.1019L41.0066 17.1735Z" fill="white"/>
<path d="M61.5311 9.199L61.4624 10.878L56.8228 10.6892L56.8915 9.0102L61.5311 9.199Z" fill="white"/>
<path d="M81.429 13.3686L79.43 12.505C79.5053 12.2306 79.53 11.9687 79.5042 11.7193C79.4797 11.4668 79.4101 11.2309 79.2954 11.0117C79.1807 10.7925 79.0242 10.5949 78.8258 10.4189C78.6304 10.2443 78.3989 10.0991 78.1312 9.98345C77.6474 9.77446 77.174 9.7126 76.7112 9.79787C76.2496 9.88009 75.8213 10.1067 75.4264 10.4776C75.0327 10.8455 74.6959 11.3535 74.4159 12.0016C74.128 12.6679 73.985 13.2704 73.9869 13.8092C73.9918 14.3493 74.1239 14.8125 74.383 15.1988C74.6421 15.5852 75.0075 15.8802 75.4791 16.0839C75.7438 16.1983 76.0038 16.2691 76.2592 16.2964C76.5177 16.325 76.764 16.3105 76.9983 16.2528C77.234 16.1921 77.4517 16.0894 77.6514 15.9446C77.8542 15.8012 78.0323 15.6146 78.1858 15.3848L80.1808 16.2575C79.9438 16.6641 79.6357 17.022 79.2565 17.3312C78.8818 17.6387 78.4533 17.8742 77.971 18.0377C77.4931 18.1996 76.9759 18.2686 76.4193 18.2448C75.8671 18.2192 75.2913 18.077 74.6919 17.8181C73.8582 17.4579 73.1943 16.9473 72.7001 16.2861C72.2089 15.6262 71.9276 14.8566 71.8562 13.9773C71.7879 13.0994 71.9732 12.1523 72.4123 11.136C72.8527 10.1168 73.419 9.33248 74.1113 8.78309C74.8036 8.23371 75.5592 7.91385 76.3782 7.82353C77.1984 7.73016 78.0192 7.86091 78.8407 8.2158C79.3823 8.44975 79.8515 8.74269 80.2483 9.0946C80.648 9.44783 80.9644 9.84803 81.1972 10.2952C81.4313 10.7394 81.5703 11.22 81.614 11.7371C81.6608 12.2556 81.5991 12.7994 81.429 13.3686Z" fill="white"/>
<path d="M92.1917 23.3472C91.4778 24.1975 90.7092 24.7856 89.8859 25.1115C89.0653 25.4395 88.2461 25.5287 87.4284 25.3789C86.6154 25.2287 85.8649 24.8648 85.177 24.2873C84.4839 23.7056 83.9941 23.0261 83.7075 22.249C83.4209 21.4718 83.3681 20.6507 83.5491 19.7857C83.7301 18.9207 84.1764 18.0643 84.8883 17.2165C85.6022 16.3661 86.3695 15.7769 87.1902 15.4489C88.0109 15.1209 88.8277 15.032 89.6407 15.1822C90.4559 15.3298 91.21 15.6945 91.903 16.2763C92.5909 16.8538 93.0782 17.5311 93.3648 18.3083C93.6561 19.085 93.7112 19.9059 93.5303 20.7709C93.3518 21.6381 92.9056 22.4968 92.1917 23.3472ZM90.5201 21.944C90.9825 21.3931 91.29 20.8594 91.4426 20.3426C91.5976 19.828 91.6087 19.3483 91.4758 18.9036C91.3429 18.4588 91.0772 18.0691 90.6786 17.7346C90.2801 17.4 89.8502 17.2058 89.3891 17.1519C88.928 17.0981 88.4562 17.191 87.9736 17.4307C87.4936 17.6725 87.0224 18.0689 86.5599 18.6197C86.0974 19.1705 85.7887 19.7032 85.6336 20.2178C85.481 20.7345 85.4712 21.2153 85.6041 21.6601C85.7371 22.1048 86.0028 22.4945 86.4013 22.8291C86.7999 23.1636 87.2297 23.3578 87.6908 23.4117C88.1519 23.4656 88.6225 23.3716 89.1025 23.1297C89.5851 22.89 90.0576 22.4948 90.5201 21.944Z" fill="white"/>
<path d="M104.438 31.4269L95.931 37.0222L94.9091 35.4688L97.8284 28.2465L97.7874 28.1842L92.4335 31.7059L91.2503 29.9075L99.7569 24.3122L100.795 25.8904L97.8609 33.0809L97.91 33.1557L103.26 29.6368L104.438 31.4269Z" fill="white"/>
<path d="M105.514 37.6677L107.206 37.1321L109.73 45.1043L108.038 45.6399L107.097 42.6681L99.0822 45.2052L98.4399 43.1766L106.455 40.6395L105.514 37.6677Z" fill="white"/>
<path d="M100.743 53.4187L100.671 51.1131L110.958 54.3075L111.044 57.0803L100.977 60.9073L100.905 58.6016L108.677 55.8065L108.674 55.727L100.743 53.4187ZM104.739 53.1493L104.909 58.5955L103.23 58.6481L103.059 53.2019L104.739 53.1493Z" fill="white"/>
<path d="M104.724 74.4338L105.272 72.3262C105.555 72.3585 105.817 72.3428 106.06 72.2791C106.306 72.2163 106.528 72.1114 106.727 71.9645C106.926 71.8176 107.098 71.6327 107.241 71.4097C107.384 71.1899 107.492 70.9389 107.565 70.6566C107.698 70.1466 107.686 69.6693 107.531 69.225C107.379 68.7815 107.09 68.3929 106.663 68.0594C106.239 67.7268 105.686 67.4717 105.002 67.2942C104.3 67.1118 103.682 67.0627 103.15 67.1471C102.617 67.2346 102.18 67.436 101.838 67.7512C101.495 68.0664 101.26 68.4726 101.131 68.9699C101.058 69.249 101.028 69.5168 101.04 69.7733C101.051 70.0331 101.103 70.2743 101.196 70.497C101.292 70.7206 101.427 70.92 101.601 71.0952C101.773 71.2737 101.985 71.4211 102.236 71.5375L101.679 73.6426C101.24 73.4706 100.839 73.221 100.476 72.8937C100.115 72.5704 99.8164 72.183 99.581 71.7315C99.348 71.284 99.2006 70.7835 99.139 70.2298C99.0797 69.6802 99.1322 69.0894 99.2964 68.4575C99.5247 67.5785 99.9278 66.8442 100.506 66.2547C101.083 65.6683 101.8 65.2725 102.658 65.0673C103.515 64.8654 104.48 64.9035 105.551 65.1818C106.626 65.461 107.488 65.9005 108.136 66.5005C108.785 67.1005 109.217 67.7982 109.432 68.5936C109.649 69.3899 109.646 70.2211 109.421 71.0872C109.272 71.6582 109.055 72.1667 108.768 72.6126C108.48 73.0618 108.133 73.4356 107.726 73.7341C107.323 74.0335 106.869 74.2444 106.365 74.3668C105.86 74.4924 105.313 74.5147 104.724 74.4338Z" fill="white"/>
<path d="M104.381 79.8605L105.913 80.7568L101.689 87.974L100.157 87.0777L101.732 84.3873L94.4756 80.1419L95.5503 78.3054L102.807 82.5509L104.381 79.8605Z" fill="white"/>
<path d="M93.0968 97.8841L90.9334 99.4228L84.683 95.4736L84.5857 95.5428L86.2662 102.742L84.1028 104.281L78.2007 95.9843L79.9023 94.7741L83.7438 100.174L83.8127 100.125L82.1472 93.2384L83.3059 92.4143L89.2803 96.267L89.3491 96.218L85.4932 90.7976L87.1948 89.5874L93.0968 97.8841Z" fill="white"/>
<path d="M74.7673 97.4363L78.0449 107.076L71.5491 109.284L70.9778 107.604L75.4354 106.089L74.6544 103.792L70.531 105.193L69.9597 103.513L74.0831 102.111L73.3005 99.8095L68.8241 101.331L68.2527 99.6508L74.7673 97.4363Z" fill="white"/>
</svg>
