<svg width="32" height="32" viewBox="0 0 32 32" fill="none" xmlns="http://www.w3.org/2000/svg">
<path fill-rule="evenodd" clip-rule="evenodd" d="M0 16C0 7.16344 7.16344 0 16 0C24.8366 0 32 7.16344 32 16C32 24.8366 24.8366 32 16 32C7.16344 32 0 24.8366 0 16Z" fill="#263790"/>
<rect width="33" height="32" fill="#263790"/>
<path d="M11.9051 23V12.4883H8.63553V23H11.9051ZM10.2527 11.082C11.3074 11.082 12.1512 10.2031 12.1512 9.14844C12.1512 8.12891 11.3074 7.28516 10.2527 7.28516C9.23319 7.28516 8.38944 8.12891 8.38944 9.14844C8.38944 10.2031 9.23319 11.082 10.2527 11.082ZM24.1043 23H24.1394V17.2344C24.1394 14.4219 23.5066 12.2422 20.2019 12.2422C18.6199 12.2422 17.5652 13.1211 17.1082 13.9297H17.073V12.4883H13.9441V23H17.2137V17.7969C17.2137 16.4258 17.4598 15.125 19.1473 15.125C20.8348 15.125 20.8699 16.6719 20.8699 17.9023V23H24.1043Z" fill="white"/>
</svg>
