<svg width="17" height="16" viewBox="0 0 17 16" fill="none" xmlns="http://www.w3.org/2000/svg">
<path d="M3.90506 16V5.48828H0.635531V16H3.90506ZM2.25272 4.08203C3.30741 4.08203 4.15116 3.20312 4.15116 2.14844C4.15116 1.12891 3.30741 0.285156 2.25272 0.285156C1.23319 0.285156 0.389438 1.12891 0.389438 2.14844C0.389438 3.20312 1.23319 4.08203 2.25272 4.08203ZM16.1043 16H16.1394V10.2344C16.1394 7.42188 15.5066 5.24219 12.2019 5.24219C10.6199 5.24219 9.56522 6.12109 9.10819 6.92969H9.07303V5.48828H5.94413V16H9.21366V10.7969C9.21366 9.42578 9.45975 8.125 11.1473 8.125C12.8348 8.125 12.8699 9.67188 12.8699 10.9023V16H16.1043Z" fill="#292F36"/>
</svg>
