<svg width="22" height="22" viewBox="0 0 22 22" fill="none" xmlns="http://www.w3.org/2000/svg">
<path d="M8.94975 0H8.95261V0.00128549C11.4232 0.00202005 13.6602 1.02986 15.2791 2.69071C16.8953 4.34917 17.8965 6.64174 17.8981 9.17378H17.8993V9.17984V9.18719H17.8981C17.8972 10.2077 17.7339 11.1898 17.4336 12.1056C17.3833 12.2593 17.3307 12.407 17.2766 12.548V12.5493C17.0177 13.2214 16.6831 13.8568 16.2835 14.4421L21.4903 19.2423L21.4935 19.2452L21.5216 19.272L21.5236 19.274C21.8176 19.5611 21.9776 19.9454 21.9979 20.3355C22.0175 20.7211 21.9006 21.1156 21.6435 21.432L21.6416 21.4349L21.6102 21.4722L21.604 21.4786L21.5778 21.508L21.575 21.5119C21.2948 21.8134 20.9208 21.9772 20.5401 21.9978C20.1647 22.0182 19.7798 21.8986 19.4711 21.6346L19.4684 21.6325L19.4319 21.6004L19.4267 21.596L14.1012 16.6865C13.9437 16.8004 13.7829 16.9086 13.6201 17.0107C13.3994 17.1493 13.1707 17.2799 12.9375 17.3991C11.7381 18.0128 10.3828 18.358 8.94993 18.358V18.3593H8.94706V18.358C6.47652 18.3573 4.23908 17.3295 2.62022 15.6686C1.00351 14.0101 0.00286461 11.7172 0.00125327 9.1859H0V9.17984V9.1769H0.00125327C0.00196942 6.64284 1.00404 4.34788 2.62326 2.6874C4.24016 1.02986 6.47526 0.00293825 8.94384 0.00128549V0H8.94975ZM8.95261 2.05861V2.0599H8.94975H8.94384V2.05861C7.03064 2.0599 5.29648 2.85745 4.04106 4.14459C2.78583 5.43173 2.00755 7.21231 2.00701 9.17709H2.00827V9.18003V9.18609H2.00701C2.00827 11.1485 2.78529 12.9263 4.04071 14.2144C5.29558 15.502 7.03154 16.3003 8.94688 16.3007V16.2994H8.94975H8.95566V16.3007C10.8689 16.2994 12.6023 15.5022 13.8581 14.2147C15.1133 12.9276 15.8916 11.1476 15.8919 9.18296H15.8909V9.18003V9.17397H15.8919C15.8909 7.21158 15.1131 5.43283 13.8584 4.14514C12.6036 2.85745 10.8681 2.05917 8.95261 2.05861Z" fill="white"/>
</svg>
