<svg width="34" height="41" viewBox="0 0 34 41" fill="none" xmlns="http://www.w3.org/2000/svg">
<path d="M10.1758 20.7228C11.5264 24.1561 13.7817 26.9252 16.5742 28.5789C16.7802 28.699 17.008 28.751 17.2353 28.7297C17.4626 28.7085 17.6814 28.6148 17.8703 28.4578L21.9719 25.0851C22.1531 24.9338 22.3625 24.8415 22.5805 24.8167C22.7986 24.792 23.0181 24.8357 23.2187 24.9437L30.8969 29.0031C31.1593 29.1375 31.3785 29.3744 31.5208 29.6773C31.6631 29.9802 31.7206 30.3323 31.6844 30.6793C31.441 33.0175 30.5139 35.1663 29.0765 36.7239C27.6391 38.2814 25.7899 39.1408 23.875 39.1414C17.9574 39.1414 12.2821 36.2476 8.09768 31.0967C3.91327 25.9457 1.5625 18.9596 1.5625 11.675C1.56293 9.31778 2.2611 7.04148 3.52637 5.27207C4.79164 3.50266 6.5373 2.3614 8.43672 2.06183C8.71864 2.01725 9.00465 2.08799 9.25071 2.26316C9.49676 2.43832 9.68922 2.7082 9.79844 3.03123L13.0961 12.5031C13.1818 12.7461 13.2177 13.0114 13.2006 13.2755C13.1834 13.5397 13.1137 13.7946 12.9977 14.0178L10.2578 19.1475C10.1358 19.3795 10.0642 19.6462 10.0499 19.922C10.0355 20.1978 10.0789 20.4735 10.1758 20.7228Z" stroke="white" stroke-width="3" stroke-linecap="round" stroke-linejoin="round"/>
</svg>
