<svg width="48" height="48" viewBox="0 0 48 48" fill="none" xmlns="http://www.w3.org/2000/svg">
<path d="M46.2752 18.7699C46.1862 18.3958 45.8112 18.1648 45.4358 18.2538C45.0617 18.3432 44.8307 18.7187 44.9202 19.0927C45.2865 20.6291 45.4726 22.2515 45.4726 23.9156C45.4726 35.8016 35.5859 45.4716 23.433 45.4716C11.28 45.4716 1.39332 35.8016 1.39332 23.9156C1.39332 12.0286 11.28 2.35805 23.433 2.35805C28.273 2.35805 32.8964 3.88961 36.8027 6.78722C37.1108 7.01633 37.5479 6.95176 37.7771 6.64277C38.0062 6.33378 37.9416 5.89756 37.6326 5.66845C33.4847 2.59099 28.5743 0.96521 23.433 0.96521C10.5119 0.96521 0 11.2604 0 23.9156C0 36.5698 10.5119 46.8649 23.433 46.8649C36.3541 46.8649 46.8659 36.5698 46.8659 23.9156C46.8659 22.1434 46.6669 20.4124 46.2752 18.7699Z" fill="#263790"/>
<path d="M46.2752 18.7699C46.1862 18.3958 45.8112 18.1648 45.4358 18.2538C45.0617 18.3432 44.8307 18.7187 44.9202 19.0927C45.2865 20.6291 45.4726 22.2515 45.4726 23.9156C45.4726 35.8016 35.5859 45.4716 23.433 45.4716C11.28 45.4716 1.39332 35.8016 1.39332 23.9156C1.39332 12.0286 11.28 2.35805 23.433 2.35805C28.273 2.35805 32.8964 3.88961 36.8027 6.78722C37.1108 7.01633 37.5479 6.95176 37.7771 6.64277C38.0062 6.33378 37.9416 5.89756 37.6326 5.66845C33.4847 2.59099 28.5743 0.96521 23.433 0.96521C10.5119 0.96521 0 11.2604 0 23.9156C0 36.5698 10.5119 46.8649 23.433 46.8649C36.3541 46.8649 46.8659 36.5698 46.8659 23.9156C46.8659 22.1434 46.6669 20.4124 46.2752 18.7699Z" stroke="#263790"/>
<path d="M21.3532 34.1628L21.3526 34.1622L8.84369 21.7799L8.84367 21.7799C8.3855 21.3263 8.38544 20.5891 8.84351 20.1354L21.3532 34.1628ZM21.3532 34.1628C21.5726 34.3792 21.8683 34.5 22.176 34.5H22.1761H22.1761H22.1761H22.1762H22.1762H22.1762H22.1763H22.1763H22.1764H22.1764H22.1764H22.1765H22.1765H22.1765H22.1766H22.1766H22.1767H22.1767H22.1767H22.1768H22.1768H22.1768H22.1769H22.1769H22.177H22.177H22.177H22.1771H22.1771H22.1771H22.1772H22.1772H22.1773H22.1773H22.1773H22.1774H22.1774H22.1774H22.1775H22.1775H22.1776H22.1776H22.1776H22.1777H22.1777H22.1777H22.1778H22.1778H22.1779H22.1779H22.1779H22.178H22.178H22.178H22.1781H22.1781H22.1781H22.1782H22.1782H22.1783H22.1783H22.1783H22.1784H22.1784H22.1784H22.1785H22.1785H22.1786H22.1786H22.1786H22.1787H22.1787H22.1787H22.1788H22.1788H22.1789H22.1789H22.1789H22.179H22.179H22.179H22.1791H22.1791H22.1791H22.1792H22.1792H22.1793H22.1793H22.1793H22.1794H22.1794H22.1794H22.1795H22.1795H22.1796H22.1796H22.1796H22.1797H22.1797H22.1797H22.1798H22.1798H22.1798H22.1799H22.1799H22.18H22.18H22.18H22.1801H22.1801H22.1801H22.1802H22.1802H22.1802H22.1803H22.1803H22.1804H22.1804H22.1804H22.1805H22.1805H22.1805H22.1806H22.1806H22.1807H22.1807H22.1807H22.1808H22.1808H22.1808H22.1809H22.1809H22.1809H22.181H22.181H22.1811H22.1811H22.1811H22.1812H22.1812H22.1812H22.1813H22.1813H22.1813H22.1814H22.1814H22.1815H22.1815H22.1815H22.1816H22.1816H22.1816H22.1817H22.1817H22.1817H22.1818H22.1818H22.1819H22.1819H22.1819H22.182H22.182H22.182H22.1821H22.1821H22.1821H22.1822H22.1822H22.1823H22.1823H22.1823H22.1824H22.1824H22.1824H22.1825H22.1825H22.1825H22.1826H22.1826H22.1827H22.1827H22.1827H22.1828H22.1828H22.1828H22.1829H22.1829H22.1829H22.183H22.183H22.1831H22.1831H22.1831H22.1832H22.1832H22.1832H22.1833H22.1833H22.1833H22.1834H22.1834H22.1835H22.1835H22.1835H22.1836H22.1836H22.1836H22.1837H22.1837H22.1837H22.1838H22.1838H22.1839H22.1839H22.1839H22.184H22.184H22.184H22.1841H22.1841H22.1841H22.1842H22.1842H22.1843H22.1843H22.1843H22.1844H22.1844H22.1844H22.1845H22.1845H22.1845H22.1846H22.1846H22.1847H22.1847H22.1847H22.1848H22.1848H22.1848H22.1849H22.1849H22.1849H22.185H22.185H22.185H22.1851H22.1851H22.1852H22.1852H22.1852H22.1853H22.1853H22.1853H22.1854H22.1854H22.1854H22.1855H22.1855H22.1856H22.1856H22.1856H22.1857H22.1857H22.1857H22.1858H22.1858H22.1858H22.1859H22.1859H22.186H22.186H22.186H22.1861H22.1861H22.1861H22.1862H22.1862H22.1862H22.1863H22.1863H22.1864H22.1864H22.1864H22.1865H22.1865H22.1865H22.1866H22.1866H22.1866H22.1867H22.1867H22.1868H22.1868H22.1868H22.1869H22.1869H22.1869H22.187H22.187H22.187H22.1871H22.1871H22.1872H22.1872H22.1872H22.1873H22.1873H22.1873H22.1874H22.1874H22.1874H22.1875H22.1875H22.1876H22.1876H22.1876H22.1877H22.1877H22.1877H22.1878H22.1878H22.1878H22.1879H22.1879H22.188H22.188H22.188H22.1881H22.1881H22.1881H22.1882H22.1882H22.1882H22.1883H22.1883H22.1883H22.1884H22.1884H22.1885H22.1885H22.1885H22.1886H22.1886H22.1886H22.1887H22.1887H22.1888H22.1888H22.1888H22.1889H22.1889H22.1889H22.189H22.189H22.189H22.1891H22.1891H22.1892H22.1892H22.1892H22.1893H22.1893H22.1893H22.1894H22.1894H22.1894H22.1895H22.1895H22.1896H22.1896H22.1896H22.1897H22.1897H22.1897H22.1898H22.1898H22.1898H22.1899H22.1899H22.19H22.19H22.19H22.1901H22.1901H22.1901H22.1902H22.1902H22.1902H22.1903H22.1903H22.1904H22.1904H22.1904H22.1905H22.1905H22.1905H22.1906H22.1906H22.1906H22.1907H22.1907H22.1908H22.1908H22.1908H22.1909H22.1909H22.1909H22.191H22.191H22.1911H22.1911H22.1911H22.1912H22.1912H22.1912H22.1913H22.1913H22.1913H22.1914H22.1914H22.1915H22.1915H22.1915H22.1916H22.1916H22.1916H22.1917H22.1917H22.1918H22.1918H22.1918H22.1919H22.1919H22.1919H22.192H22.192H22.192H22.1921H22.1921H22.1922H22.1922H22.1922H22.1923H22.1923H22.1923H22.1924H22.1924H22.1925H22.1925H22.1925H22.1926H22.1926H22.1926H22.1927H22.1927H22.1927H22.1928H22.1928H22.1929H22.1929H22.1929H22.193H22.193H22.193H22.1931H22.1931H22.1932H22.1932H22.1932H22.1933H22.1933H22.1933H22.1934H22.1934H22.1935H22.1935H22.1935H22.1936H22.1936H22.1936H22.1937H22.1937H22.1938H22.1938H22.1938H22.1939H22.1939H22.1939H22.194H22.194H22.1941H22.1941H22.1941H22.1942H22.1942H22.1942H22.1943H22.1943H22.1944H22.1944H22.1944H22.1945H22.1945H22.1945H22.1946H22.1946H22.1947H22.1947H22.1947H22.1948H22.1948V34.5002L22.2084 34.4998C22.528 34.4911 22.8305 34.3519 23.0447 34.1145L23.0447 34.1145L46.2021 8.43498L46.2023 8.43474C46.6337 7.95581 46.591 7.22017 46.1084 6.79338C45.6286 6.36897 44.8938 6.40961 44.4644 6.88555L44.4643 6.88566L22.1276 31.6547M21.3532 34.1628L22.1276 31.6547M22.1276 31.6547L10.4902 20.1352C10.035 19.6846 9.29892 19.6841 8.84367 20.1352L22.1276 31.6547Z" fill="#263790" stroke="#263790"/>
</svg>
